# Blender 4.3.2
# www.blender.org
o Col2
v -0.500000 -1.000000 0.349799
v 0.500000 1.000000 0.349799
v -0.500000 -1.000000 -2.500000
v -0.500000 1.000000 -2.500000
v 0.500000 -1.000000 0.349799
v -0.500000 1.000000 0.349799
v 0.500000 -1.000000 -2.500000
v 0.500000 1.000000 -2.500000
v -0.319030 0.180970 2.500000
v -0.319030 0.819030 2.500000
v 0.319030 0.819030 2.500000
v 0.319030 0.180970 2.500000
vn -0.9965 -0.0000 0.0839
vn -0.0000 -0.0000 -1.0000
vn 0.9965 -0.0000 0.0839
vn -0.0000 0.9965 0.0839
vn -0.0000 -1.0000 -0.0000
vn -1.0000 -0.0000 -0.0000
vn -0.0000 -0.0000 1.0000
vn 1.0000 -0.0000 -0.0000
vn -0.0000 1.0000 -0.0000
vn -0.0000 -0.8765 0.4814
s 0
f 10//1 6//1 1//1 9//1
f 3//2 4//2 8//2 7//2
f 2//3 11//3 12//3 5//3
f 2//4 6//4 10//4 11//4
f 3//5 7//5 5//5 1//5
f 6//6 4//6 3//6 1//6
f 12//7 11//7 10//7 9//7
f 8//8 2//8 5//8 7//8
f 8//9 4//9 6//9 2//9
f 1//10 5//10 12//10 9//10
